<svg xmlns="http://www.w3.org/2000/svg" viewBox="0 0 400 300" width="406" height="306" class="illustration styles_illustrationTablet__1DWOa"><g id="_358_it_support_outline" data-name="#358_it_support_outline"><path d="M219.94,110.58a112.25,112.25,0,0,0-25.71-9.86c-7.49-1.86-16.38-5.41-23.56-1.72-11.23,5.78-18.76,16.22-19.89,28.66-.69,7.57-.68,15.09-1.91,22.6-1.2,7.33-2.22,14.12,2.36,20.81a27.46,27.46,0,0,0,8,7.26c17,11,38.62,12.55,58.63,9.48,11-1.69,22.6-5.21,29.28-14.1a25.58,25.58,0,0,0,4.45-9.57,16.91,16.91,0,0,0-.06-8.68c-2.63-8.54-13.31-12-17.38-20-2.86-5.61-2-12.72-5.52-18C226.58,114.38,223.25,112.34,219.94,110.58Z" fill="#725858"></path><path d="M200.27,190.2c-13.41,0-28.44-2.57-41.56-11a29,29,0,0,1-8.31-7.53c-4.88-7.13-3.68-14.46-2.52-21.54a135.35,135.35,0,0,0,1.34-14.38c.16-2.67.32-5.43.56-8.16,1.15-12.63,8.6-23.36,20.43-29.45,6.37-3.27,13.91-1.19,20.55.65,1.27.35,2.51.69,3.71,1a113.09,113.09,0,0,1,25.94,10c3.43,1.82,6.9,4,9.08,7.25,2,3,2.64,6.54,3.27,10a29.36,29.36,0,0,0,2.3,8.1c1.78,3.48,5,6.16,8.12,8.75,3.84,3.2,7.82,6.5,9.33,11.41a17.61,17.61,0,0,1,.07,9.2,26.61,26.61,0,0,1-4.62,9.94c-5.65,7.52-15.45,12.26-29.93,14.48A116.61,116.61,0,0,1,200.27,190.2ZM177.92,98.38a14.67,14.67,0,0,0-6.8,1.51c-11.21,5.77-18.26,15.92-19.34,27.86-.25,2.69-.41,5.44-.56,8.09a141.1,141.1,0,0,1-1.36,14.59c-1.15,7-2.24,13.61,2.19,20.08a26.23,26.23,0,0,0,7.74,7c18.88,12.16,41.92,11.79,57.93,9.33,14.14-2.17,23.24-6.53,28.64-13.71a24.71,24.71,0,0,0,4.27-9.19,15.7,15.7,0,0,0,0-8.16c-1.34-4.34-4.91-7.31-8.7-10.46-3.27-2.72-6.66-5.54-8.62-9.38a31.39,31.39,0,0,1-2.48-8.64c-.63-3.38-1.21-6.56-3-9.22s-4.66-4.63-8.35-6.6h0A111.27,111.27,0,0,0,194,101.69c-1.22-.3-2.48-.65-3.76-1C186.1,99.55,181.88,98.38,177.92,98.38Z" fill="#093f68"></path><path d="M237.75,100.19a3,3,0,0,1-3-3V87.53a36.93,36.93,0,0,0-36.89-36.89H189a36.93,36.93,0,0,0-36.89,36.89v9.66a3,3,0,0,1-6,0V87.53A42.94,42.94,0,0,1,189,44.64h8.9a42.94,42.94,0,0,1,42.89,42.89v9.66A3,3,0,0,1,237.75,100.19Z" fill="#f56132"></path><path d="M237.75,101.19a4,4,0,0,1-4-4V87.53a35.93,35.93,0,0,0-35.89-35.89H189a35.93,35.93,0,0,0-35.89,35.89v9.66a4,4,0,0,1-8,0V87.53A43.94,43.94,0,0,1,189,43.64h8.9a43.94,43.94,0,0,1,43.89,43.89v9.66A4,4,0,0,1,237.75,101.19ZM189,49.64h8.9a37.94,37.94,0,0,1,37.89,37.89v9.66a2,2,0,0,0,4,0V87.53a41.94,41.94,0,0,0-41.89-41.89H189a41.94,41.94,0,0,0-41.89,41.89v9.66a2,2,0,0,0,4,0V87.53A37.93,37.93,0,0,1,189,49.64Z" fill="#093f68"></path><polyline points="186.88 165.1 186.88 157.14 200.72 157.14 200.72 165.1" fill="#ffc9b0"></polyline><path d="M200.72,166.1a1,1,0,0,1-1-1v-7H187.88v7a1,1,0,1,1-2,0v-8a1,1,0,0,1,1-1h13.84a1,1,0,0,1,1,1v8A1,1,0,0,1,200.72,166.1Z" fill="#093f68"></path><path d="M193.77,159h0c-20.41,0-37-12.15-37-34.55V103.66c0-10.23,8.08-18.2,17.35-17.1,7.72.91,9.72,6.13,22.61,6.37,5.32.11,10.34-6.58,14.78-7.47,9.34-1.89,18,5.72,18.48,16.13l.7,22.81C230.73,146.8,214.18,159,193.77,159Z" fill="#ffc9b0"></path><path d="M193.77,160c-22.71,0-38-14.28-38-35.55V103.66A18.85,18.85,0,0,1,162,89.53a15.6,15.6,0,0,1,12.32-4,23,23,0,0,1,8,2.74,29.5,29.5,0,0,0,14.47,3.63c2.7.06,5.43-1.94,8.09-3.87,2.22-1.62,4.33-3.15,6.47-3.58a15.42,15.42,0,0,1,12.75,3.11,18.59,18.59,0,0,1,6.93,14l.7,22.82C231.73,145.67,216.47,160,193.77,160ZM172.44,87.46A13.68,13.68,0,0,0,163.29,91a16.83,16.83,0,0,0-5.48,12.63V124.4c0,23.18,18.06,33.55,36,33.55s36-10.37,36-33.55l-.7-22.78a16.61,16.61,0,0,0-6.17-12.46,13.44,13.44,0,0,0-11.11-2.72c-1.72.34-3.65,1.75-5.7,3.23-2.92,2.13-6,4.34-9.3,4.26a31.52,31.52,0,0,1-15.32-3.84A21.07,21.07,0,0,0,174,87.55,14.3,14.3,0,0,0,172.44,87.46Z" fill="#093f68"></path><circle cx="175.87" cy="123.19" r="3.55" fill="#093f68"></circle><circle cx="212.48" cy="123.19" r="3.55" fill="#093f68"></circle><path d="M194.16,134.84a23.08,23.08,0,0,1-3.44-.28,1,1,0,1,1,.34-2,17.07,17.07,0,0,0,5.37,0c.31-.93-1.05-4.83-3-8.53a1,1,0,0,1,.43-1.35,1,1,0,0,1,1.34.42c1,1.85,4,8.06,3,10.34a1.78,1.78,0,0,1-1.22,1A11.8,11.8,0,0,1,194.16,134.84Z" fill="#093f68"></path><path d="M181.92,115.47H165.45a1.59,1.59,0,1,1,0-3.18h16.47a1.59,1.59,0,1,1,0,3.18Z" fill="#093f68"></path><path d="M222.89,115.47H206.42a1.59,1.59,0,1,1,0-3.18h16.47a1.59,1.59,0,1,1,0,3.18Z" fill="#093f68"></path><path d="M179.09,135.24h-7.51a9.73,9.73,0,0,1-9.73-9.72v-4.73a4.3,4.3,0,0,1,4.3-4.29h18.37a4.29,4.29,0,0,1,4.29,4.29v4.73A9.73,9.73,0,0,1,179.09,135.24ZM166.15,118.5a2.3,2.3,0,0,0-2.3,2.29v4.73a7.73,7.73,0,0,0,7.73,7.72h7.51a7.72,7.72,0,0,0,7.72-7.72v-4.73a2.3,2.3,0,0,0-2.29-2.29Z" fill="#093f68"></path><path d="M214.77,135.24h-7.52a9.73,9.73,0,0,1-9.72-9.72v-4.73a4.3,4.3,0,0,1,4.3-4.29H220.2a4.3,4.3,0,0,1,4.29,4.29v4.73A9.73,9.73,0,0,1,214.77,135.24ZM201.83,118.5a2.3,2.3,0,0,0-2.3,2.29v4.73a7.73,7.73,0,0,0,7.72,7.72h7.52a7.72,7.72,0,0,0,7.72-7.72v-4.73a2.3,2.3,0,0,0-2.29-2.29Z" fill="#093f68"></path><path d="M197.85,124.19a1,1,0,0,1-.65-.24c-4.06-3.49-8.1-.14-8.27,0a1,1,0,1,1-1.3-1.52,8.28,8.28,0,0,1,10.88,0,1,1,0,0,1,.1,1.41A1,1,0,0,1,197.85,124.19Z" fill="#093f68"></path><path d="M162.85,121.79a1.11,1.11,0,0,1-.43-.09l-11.26-5.34a1,1,0,0,1,.86-1.81l11.26,5.34a1,1,0,0,1-.43,1.9Z" fill="#093f68"></path><path d="M224,121.79a1,1,0,0,1-.45-1.89l9-4.45a1,1,0,1,1,.88,1.8l-9,4.44A1,1,0,0,1,224,121.79Z" fill="#093f68"></path><path d="M189.24,56.22h8.41A33.08,33.08,0,0,1,230.73,89.3v3.58a0,0,0,0,1,0,0H156.16a0,0,0,0,1,0,0V89.3a33.08,33.08,0,0,1,33.08-33.08Z" fill="#E1DDD2"></path><path d="M230.73,93.88H156.16a1,1,0,0,1-1-1V89.3a34.12,34.12,0,0,1,34.08-34.08h8.41A34.12,34.12,0,0,1,231.73,89.3v3.58A1,1,0,0,1,230.73,93.88Zm-73.57-2h72.57V89.3a32.12,32.12,0,0,0-32.08-32.08h-8.41A32.12,32.12,0,0,0,157.16,89.3Z" fill="#093f68"></path><rect x="142.56" y="97.19" width="15.81" height="36.54" rx="5.99" fill="#f56132"></rect><path d="M152.38,134.73h-3.83a7,7,0,0,1-7-7V103.18a7,7,0,0,1,7-7h3.83a7,7,0,0,1,7,7v24.55A7,7,0,0,1,152.38,134.73Zm-3.83-36.54a5,5,0,0,0-5,5v24.55a5,5,0,0,0,5,5h3.83a5,5,0,0,0,5-5V103.18a5,5,0,0,0-5-5Z" fill="#093f68"></path><rect x="229.84" y="97.19" width="15.81" height="36.54" rx="5.99" fill="#f56132"></rect><path d="M239.66,134.73h-3.83a7,7,0,0,1-7-7V103.18a7,7,0,0,1,7-7h3.83a7,7,0,0,1,7,7v24.55A7,7,0,0,1,239.66,134.73Zm-3.83-36.54a5,5,0,0,0-5,5v24.55a5,5,0,0,0,5,5h3.83a5,5,0,0,0,5-5V103.18a5,5,0,0,0-5-5Z" fill="#093f68"></path><path d="M156.16,92.88h74.57a0,0,0,0,1,0,0v1.4a17.6,17.6,0,0,1-17.6,17.6H173.76a17.6,17.6,0,0,1-17.6-17.6v-1.4A0,0,0,0,1,156.16,92.88Z" fill="#E1DDD2"></path><path d="M213.12,112.88H173.76a18.62,18.62,0,0,1-18.6-18.6v-1.4a1,1,0,0,1,1-1h74.57a1,1,0,0,1,1,1v1.4A18.62,18.62,0,0,1,213.12,112.88Zm-56-19v.4a16.62,16.62,0,0,0,16.6,16.6h39.36a16.63,16.63,0,0,0,16.61-16.6v-.4Z" fill="#093f68"></path><path d="M194.12,148.57a15.48,15.48,0,0,1-7.6-1.82,11.13,11.13,0,0,1-4.85-5.09,1,1,0,0,1,1.86-.74c.17.43,4.26,9.85,21,3.38a1,1,0,0,1,1.3.58,1,1,0,0,1-.58,1.29A31.48,31.48,0,0,1,194.12,148.57Z" fill="#093f68"></path><path d="M169.51,152.69c-4.84,0-11.38-.55-14.69-3.23-5.57-4.51-5.37-15.19-5.36-15.64a1,1,0,0,1,1-1,1,1,0,0,1,1,1c0,.1-.19,10.14,4.62,14s19,2.54,19.15,2.53a1,1,0,1,1,.2,2C175.19,152.44,172.73,152.69,169.51,152.69Z" fill="#093f68"></path><rect x="164.7" y="147.55" width="16.46" height="6.88" rx="3.44" fill="#f56132"></rect><path d="M177.72,155.44h-9.58a4.45,4.45,0,0,1,0-8.89h9.58a4.45,4.45,0,0,1,0,8.89Zm-9.58-6.89a2.45,2.45,0,0,0,0,4.89h9.58a2.45,2.45,0,0,0,0-4.89Z" fill="#093f68"></path><path d="M166.46,165.1h54.67a11.18,11.18,0,0,1,11.18,11.18V238.9a0,0,0,0,1,0,0h-77a0,0,0,0,1,0,0V176.29A11.18,11.18,0,0,1,166.46,165.1Z" fill="#E1DDD2"></path><path d="M232.32,239.9h-77a1,1,0,0,1-1-1V176.29a12.2,12.2,0,0,1,12.18-12.19h54.68a12.2,12.2,0,0,1,12.18,12.19V238.9A1,1,0,0,1,232.32,239.9Zm-76-2h75V176.29a10.2,10.2,0,0,0-10.18-10.19H166.46a10.2,10.2,0,0,0-10.18,10.19Z" fill="#093f68"></path><rect x="173.68" y="165.1" width="10.32" height="31.96" fill="#fff"></rect><path d="M184,198.07H173.68a1,1,0,0,1-1-1v-32a1,1,0,0,1,1-1H184a1,1,0,0,1,1,1v32A1,1,0,0,1,184,198.07Zm-9.32-2H183v-30h-8.32Z" fill="#093f68"></path><rect x="203.6" y="165.1" width="10.32" height="31.96" fill="#fff"></rect><path d="M213.92,198.07H203.6a1,1,0,0,1-1-1v-32a1,1,0,0,1,1-1h10.32a1,1,0,0,1,1,1v32A1,1,0,0,1,213.92,198.07Zm-9.32-2h8.32v-30H204.6Z" fill="#093f68"></path><rect x="166.69" y="197.07" width="54.23" height="41.84" fill="#fff"></rect><path d="M220.92,239.9H166.69a1,1,0,0,1-1-1V197.07a1,1,0,0,1,1-1h54.23a1,1,0,0,1,1,1V238.9A1,1,0,0,1,220.92,239.9Zm-53.23-2h52.23V198.07H167.69Z" fill="#093f68"></path><path d="M166.69,198.07a1,1,0,0,1-1-1V179a1,1,0,0,1,2,0v18A1,1,0,0,1,166.69,198.07Z" fill="#093f68"></path><path d="M220.92,198.07a1,1,0,0,1-1-1V179a1,1,0,0,1,2,0v18A1,1,0,0,1,220.92,198.07Z" fill="#093f68"></path><rect x="183.86" y="232.52" width="63.18" height="6.38" fill="#ffbc0e"></rect><path d="M247,239.9H183.86a1,1,0,0,1-1-1v-6.38a1,1,0,0,1,1-1H247a1,1,0,0,1,1,1v6.38A1,1,0,0,1,247,239.9Zm-62.18-2H246v-4.38H184.86Z" fill="#093f68"></path><rect x="224.26" y="232.52" width="58.73" height="6.38" transform="translate(507.26 471.42) rotate(180)" fill="#ffbc0e"></rect><path d="M283,239.9H224.26a1,1,0,0,1-1-1v-6.38a1,1,0,0,1,1-1H283a1,1,0,0,1,1,1v6.38A1,1,0,0,1,283,239.9Zm-57.73-2H282v-4.38H225.26Z" fill="#093f68"></path><polygon points="238.91 197.07 297.63 197.07 282.99 232.52 224.26 232.52 238.91 197.07" fill="#ffbc0e"></polygon><path d="M283,233.52H224.26a1,1,0,0,1-.83-.44,1,1,0,0,1-.09-.94L238,196.69a1,1,0,0,1,.93-.62h58.72a1,1,0,0,1,.93,1.38L283.92,232.9A1,1,0,0,1,283,233.52Zm-57.23-2h56.56l13.82-33.45H239.57Z" fill="#093f68"></path><path d="M193.8,227.34a18.27,18.27,0,0,1-18.25-18.25v-3.31a1,1,0,0,1,1-1h34.5a1,1,0,0,1,1,1v3.31A18.27,18.27,0,0,1,193.8,227.34Zm-16.25-20.56v2.31a16.25,16.25,0,0,0,32.5,0v-2.31Z" fill="#dfeaef"></path><path d="M164.7,222c-4.87-6.94-9.28-11.61-14.15-18.55-1.87-2.67-7.43-10.7-8.36-12a16,16,0,0,1-1.64-4.33s-2.81-19.45-8.41-15.71a1.62,1.62,0,0,0-.56.75,4.65,4.65,0,0,0,.14,3.18c.11.34,1.58,4.88,1.44,4.89-6.19.3-15.17-1.73-21.33-1a3,3,0,0,0-1.79.65,2.14,2.14,0,0,0-.27,2.41,5.92,5.92,0,0,0,1.69,1.91c5.14,4.3,13.45,7.33,17.23,13l17.84,38.59c4.09,8.54,13.8,9.56,18.17,4.88C168.27,236.77,167.54,226.41,164.7,222Z" fill="#ffc9b0"></path><path d="M157.87,244.36a12,12,0,0,1-1.88-.15,13.87,13.87,0,0,1-10.36-8.07l-17.82-38.53c-2.25-3.33-6.3-5.78-10.21-8.15a55.66,55.66,0,0,1-6.78-4.56,6.77,6.77,0,0,1-2-2.26,3.14,3.14,0,0,1,.47-3.54,3.8,3.8,0,0,1,2.39-.93c3.45-.39,7.71.05,11.84.47,3,.31,5.83.58,8.34.59-.38-1.27-1-3.23-1.13-3.6a5.47,5.47,0,0,1-.12-3.87,2.62,2.62,0,0,1,.94-1.22,3.23,3.23,0,0,1,3.24-.36c4.45,2,6.49,15.26,6.71,16.77a14.62,14.62,0,0,0,1.47,3.9l1.23,1.77c2,2.9,5.68,8.19,7.13,10.26,2.42,3.45,4.76,6.38,7,9.23s4.66,5.83,7.12,9.33l0,0c4.08,6.32,2.83,16.66-.11,19.81A10.28,10.28,0,0,1,157.87,244.36ZM114.7,180a26.76,26.76,0,0,0-2.76.13,2.16,2.16,0,0,0-1.2.38,1.18,1.18,0,0,0-.07,1.26,5.21,5.21,0,0,0,1.43,1.58,54.22,54.22,0,0,0,6.54,4.38c4.12,2.5,8.39,5.08,10.88,8.81l.07.14,17.85,38.59a11.92,11.92,0,0,0,8.86,7,8.63,8.63,0,0,0,7.67-2.33c3.1-3.32,2.59-13.16-.1-17.34-2.41-3.44-4.76-6.38-7-9.22s-4.65-5.82-7.11-9.32c-1.45-2.07-5.13-7.37-7.14-10.27L141.36,192a16.57,16.57,0,0,1-1.79-4.68C138.8,182,136.62,173.17,134,172a1.25,1.25,0,0,0-1.31.21.62.62,0,0,0-.19.3,3.63,3.63,0,0,0,.15,2.48c1.76,5.13,1.59,5.39,1.33,5.77a1,1,0,0,1-.78.44,72.26,72.26,0,0,1-9.86-.57C120.4,180.33,117.38,180,114.7,180Z" fill="#093f68"></path><g id="ahcQ9Z"><path d="M141.25,149.79a2.26,2.26,0,0,0-1.76-2.12c-.85-.19-1.71-.32-2.57-.46a.58.58,0,0,1-.51-.42c-.25-.69-.54-1.36-.84-2a.44.44,0,0,1,.05-.51c.52-.71,1-1.42,1.52-2.16a2.27,2.27,0,0,0-.2-2.76c-.78-.86-1.63-1.67-2.45-2.5a2.42,2.42,0,0,0-3.29-.3c-.65.45-1.29.9-1.92,1.37a.44.44,0,0,1-.51,0c-.73-.32-1.47-.62-2.21-.91a.44.44,0,0,1-.33-.4c-.12-.78-.25-1.57-.39-2.35a2.39,2.39,0,0,0-2.28-2q-1.82,0-3.63,0a2.29,2.29,0,0,0-2.2,1.8c-.2.88-.33,1.77-.48,2.66a.45.45,0,0,1-.33.4c-.71.28-1.41.58-2.11.89a.39.39,0,0,1-.48,0c-.7-.51-1.4-1-2.13-1.51a2.25,2.25,0,0,0-2.78.18c-.92.84-1.82,1.72-2.67,2.64a2.32,2.32,0,0,0-.16,3.09c.48.68,1,1.35,1.44,2a.45.45,0,0,1,0,.36c-.29.76-.59,1.52-.91,2.27a.48.48,0,0,1-.29.23c-.78.15-1.57.28-2.36.4a2.37,2.37,0,0,0-2.1,2.21c-.05,1.27,0,2.53,0,3.79a2.27,2.27,0,0,0,1.74,2.11c.9.2,1.82.34,2.73.5a.44.44,0,0,1,.38.31c.28.72.58,1.43.9,2.14a.37.37,0,0,1,0,.45c-.48.65-1,1.31-1.41,2a2.38,2.38,0,0,0,.27,3.19c.76.78,1.52,1.54,2.3,2.3a2.39,2.39,0,0,0,3.27.25c.66-.46,1.32-.93,2-1.41a.38.38,0,0,1,.43,0c.67.29,1.34.58,2,.83a.5.5,0,0,1,.37.48c.12.77.25,1.55.39,2.32a2.35,2.35,0,0,0,2.17,2c1.27,0,2.55,0,3.82,0a2.29,2.29,0,0,0,2.12-1.78c.19-.86.32-1.73.46-2.6a.51.51,0,0,1,.36-.45c.71-.27,1.42-.57,2.12-.88a.41.41,0,0,1,.46,0l2,1.41a2.53,2.53,0,0,0,1.59.48,2,2,0,0,0,1.41-.58c.84-.78,1.64-1.6,2.46-2.41A2.41,2.41,0,0,0,137,161c-.45-.65-.9-1.29-1.36-1.92a.39.39,0,0,1-.05-.46c.31-.71.61-1.42.89-2.14a.45.45,0,0,1,.41-.33c.78-.12,1.57-.25,2.35-.39a2.36,2.36,0,0,0,2.06-2.25C141.29,152.28,141.28,151,141.25,149.79Zm-19.44,10.28a8.39,8.39,0,1,1,8.41-8.38A8.4,8.4,0,0,1,121.81,160.07Z" fill="#E1DDD2" stroke="#093f68" stroke-linecap="round" stroke-linejoin="round" stroke-width="2"></path></g><path d="M186.35,65.45h0a2.23,2.23,0,0,1,2.23,2.22V83.43a2.23,2.23,0,0,1-2.23,2.22h0a2.23,2.23,0,0,1-2.22-2.22V67.67A2.23,2.23,0,0,1,186.35,65.45Z" fill="#093f68"></path><path d="M196.54,69.39h-3.79a2,2,0,0,1-2-2h0a2,2,0,0,1,2-2h12a2,2,0,0,1,2,2h0a2,2,0,0,1-2,2H201V83.68a2,2,0,0,1-2,2h-.51a2,2,0,0,1-2-2Z" fill="#093f68"></path></g></svg>